<?xml version="1.0" standalone="no"?>
<!DOCTYPE svg PUBLIC "-//W3C//DTD SVG 20010904//EN"
 "http://www.w3.org/TR/2001/REC-SVG-20010904/DTD/svg10.dtd">
<svg version="1.0" xmlns="http://www.w3.org/2000/svg"
 width="180.000000pt" height="180.000000pt" viewBox="0 0 180.000000 180.000000"
 preserveAspectRatio="xMidYMid meet">
<metadata>
Created by potrace 1.14, written by Peter Selinger 2001-2017
</metadata>
<g transform="translate(0.000000,180.000000) scale(0.100000,-0.100000)"
fill="#000000" stroke="none">
<path d="M191 1778 c-74 -28 -142 -97 -170 -171 -21 -57 -21 -68 -21 -707 0
-639 0 -650 21 -707 29 -76 96 -143 172 -172 57 -21 68 -21 707 -21 639 0 650
0 707 21 76 29 143 96 172 172 21 57 21 68 21 707 0 639 0 650 -21 707 -29 76
-96 143 -172 172 -54 20 -74 21 -340 20 -155 -1 -266 -5 -247 -8 19 -4 -23 -7
-95 -7 -71 -1 -146 -5 -165 -9 -19 -4 -32 -4 -28 0 3 3 28 10 55 15 30 5 -60
8 -247 8 -276 1 -299 0 -349 -20z m1286 -4 c-3 -3 -12 -4 -19 -1 -8 3 -5 6 6
6 11 1 17 -2 13 -5z m-777 -17 c-14 -7 -45 -21 -69 -30 -56 -23 -179 -115
-232 -175 -155 -175 -221 -334 -204 -490 6 -57 11 -70 48 -110 27 -28 34 -41
20 -34 -48 26 -91 116 -100 207 -9 96 27 213 102 329 69 108 259 256 385 299
55 20 84 22 50 4z m675 -17 c-33 -16 -61 -27 -64 -25 -5 5 99 55 114 55 6 0
-17 -14 -50 -30z m287 -9 c32 -37 58 -86 58 -108 0 -10 -11 5 -24 32 -13 28
-41 65 -62 82 -28 23 -33 30 -17 27 12 -3 32 -18 45 -33z m-462 -6 c34 -21 64
-33 74 -29 12 4 15 2 10 -9 -3 -9 9 -34 29 -61 20 -25 41 -62 48 -83 15 -44
17 -130 5 -188 -16 -78 -117 -174 -192 -183 -43 -5 -63 -22 -25 -22 11 0 57
-14 103 -31 45 -16 90 -28 100 -26 10 3 16 1 12 -4 -3 -5 0 -9 6 -9 7 0 26 -6
43 -14 50 -21 107 -35 173 -40 78 -7 128 2 153 26 12 10 21 14 21 9 0 -17 -48
-48 -95 -61 -63 -18 -241 -8 -321 17 l-60 20 -35 -25 c-20 -15 -25 -16 -11 -4
27 24 28 42 4 42 -10 0 -47 11 -83 25 -57 23 -184 55 -216 55 -7 0 -13 -6 -13
-13 0 -7 -9 -30 -20 -52 -14 -27 -20 -59 -20 -105 0 -207 -110 -423 -255 -499
-53 -28 -93 -27 -130 5 -21 18 -23 21 -5 10 45 -29 122 -13 180 36 21 18 93
124 119 175 41 82 94 283 74 283 -4 0 -24 -26 -43 -58 -42 -70 -110 -145 -170
-185 -25 -17 -47 -33 -50 -37 -3 -3 -21 -12 -40 -20 -19 -7 -47 -22 -62 -32
-15 -11 -45 -21 -65 -24 l-38 -5 40 20 c22 11 45 20 51 21 11 0 146 118 152
133 2 4 9 13 16 20 15 15 106 163 106 171 0 4 12 25 27 49 15 23 33 54 40 70
14 33 2 35 -53 12 -20 -8 -40 -12 -45 -9 -5 3 -9 -1 -9 -8 0 -7 -16 -24 -35
-37 -19 -13 -52 -42 -72 -65 -21 -22 -40 -41 -43 -41 -3 -1 -15 -6 -27 -13
-42 -23 -24 6 20 31 40 24 112 92 157 147 12 15 18 18 14 8 -5 -16 0 -15 45 5
54 24 59 32 36 63 -14 18 -15 18 -39 -11 l-26 -30 18 42 c9 24 19 43 22 43 3
0 18 -18 33 -40 31 -44 40 -44 62 3 20 44 60 110 130 213 68 100 87 124 164
206 62 66 61 69 -23 118 -28 16 -45 30 -37 30 7 0 39 -16 71 -35z m527 -157
c-3 -7 -5 -2 -5 12 0 14 2 19 5 13 2 -7 2 -19 0 -25z m-974 -45 c-13 -2 -33
-2 -45 0 -13 2 -3 4 22 4 25 0 35 -2 23 -4z m-118 -33 c-89 -52 -170 -140
-221 -242 -44 -87 -48 -171 -11 -206 13 -12 27 -19 30 -15 4 3 7 1 7 -5 0 -40
-65 19 -80 72 -22 81 18 196 103 292 55 61 161 134 196 134 23 0 19 -4 -24
-30z m189 -1 c22 -26 26 -39 25 -92 l-2 -62 -7 69 c-6 58 -11 73 -34 93 -15
13 -23 23 -17 23 5 0 21 -14 35 -31z m903 -11 c-3 -8 -6 -5 -6 6 -1 11 2 17 5
13 3 -3 4 -12 1 -19z m-7 -63 c0 -14 -4 -25 -9 -25 -4 0 -6 11 -3 25 2 14 6
25 8 25 2 0 4 -11 4 -25z m-878 -112 c-3 -16 -7 -22 -10 -15 -4 13 4 42 11 42
2 0 2 -12 -1 -27z m-87 -58 c23 -11 24 -13 5 -7 -14 4 -49 6 -79 5 -36 -1 -50
2 -40 8 21 13 80 10 114 -6z m-191 -39 c-10 -8 -21 -12 -24 -10 -5 6 21 24 34
24 6 0 1 -6 -10 -14z m1079 -53 c-18 -2 -48 -2 -65 0 -18 2 -4 4 32 4 36 0 50
-2 33 -4z m-173 -23 c-30 -11 -57 -20 -60 -19 -13 2 77 38 95 38 11 0 -5 -9
-35 -19z m268 4 c12 -8 22 -20 22 -25 0 -6 -5 -6 -12 1 -7 6 -22 17 -33 25
-11 8 -15 15 -10 15 6 0 21 -7 33 -16z m-1308 -69 c-7 -9 -15 -13 -17 -11 -7
7 7 26 19 26 6 0 6 -6 -2 -15z m724 -167 c-30 -46 -59 -88 -64 -95 -5 -6 -17
-31 -26 -55 -9 -24 -29 -72 -46 -107 -23 -50 -26 -66 -16 -72 10 -7 10 -9 0
-9 -12 0 -72 -119 -72 -144 0 -7 -8 -24 -17 -37 -27 -37 -43 -67 -43 -83 0
-12 -131 -152 -174 -185 -31 -24 -149 -69 -196 -75 -25 -4 -58 -2 -75 3 -26 8
-21 9 34 10 150 2 266 117 404 399 l55 112 -32 1 -31 1 37 12 c32 10 42 21 83
101 26 50 55 99 64 110 9 11 30 39 46 63 35 54 104 132 115 132 4 0 -16 -37
-46 -82z m-674 8 c0 -11 -103 -25 -132 -18 -29 6 -25 8 32 13 36 3 73 6 83 7
9 1 17 0 17 -2z m56 -34 c-17 -16 -18 -16 -5 5 7 12 15 20 18 17 3 -2 -3 -12
-13 -22z m-345 8 c21 -12 25 -52 9 -95 -14 -37 -54 -32 -58 8 -2 15 -8 27 -13
27 -16 0 -10 23 13 47 25 27 23 26 49 13z m290 -123 c-10 -9 -11 -8 -5 6 3 10
9 15 12 12 3 -3 0 -11 -7 -18z m-278 -122 c12 -8 16 -15 9 -15 -19 0 -92 70
-92 88 0 11 11 3 31 -21 16 -20 40 -44 52 -52z m1029 3 c-20 -22 -53 -102 -66
-161 -7 -28 -71 -107 -88 -107 -5 0 4 17 20 38 17 20 36 55 42 77 22 68 68
162 82 168 27 11 31 6 10 -15z m-945 -34 c-3 -3 -12 -4 -19 -1 -8 3 -5 6 6 6
11 1 17 -2 13 -5z m110 0 c-3 -3 -12 -4 -19 -1 -8 3 -5 6 6 6 11 1 17 -2 13
-5z m453 -47 c0 -2 -10 -12 -22 -23 l-23 -19 19 23 c18 21 26 27 26 19z m410
-7 c-8 -5 -19 -10 -25 -10 -5 0 -3 5 5 10 8 5 20 10 25 10 6 0 3 -5 -5 -10z
m-920 -239 c15 -29 12 -56 -8 -81 -21 -26 -52 -18 -52 15 0 13 -6 25 -12 27
-19 7 18 58 42 58 11 0 24 -9 30 -19z m-83 -98 c-3 -10 -5 -4 -5 12 0 17 2 24
5 18 2 -7 2 -21 0 -30z m59 -115 l29 -33 -32 29 c-18 17 -33 31 -33 33 0 8 8
1 36 -29z"/>
<path d="M1186 1588 c-53 -59 -82 -104 -146 -233 -44 -88 -80 -166 -80 -172 0
-9 18 -13 58 -13 l57 1 -35 20 c-36 21 -37 21 48 -1 74 -18 143 26 191 122 28
55 31 70 31 155 0 74 -4 102 -20 131 -36 69 -32 69 -104 -10z"/>
</g>
</svg>
